<?xml version="1.0" encoding="UTF-8" standalone="no"?>
<!-- Created with Inkscape (http://www.inkscape.org/) -->

<svg
   width="180mm"
   height="60mm"
   viewBox="0 0 180 60"
   version="1.1"
   id="svg5"
   inkscape:version="1.2.1 (9c6d41e410, 2022-07-14)"
   sodipodi:docname="logo.svg"
   xml:space="preserve"
   inkscape:export-filename="logo.png"
   inkscape:export-xdpi="300"
   inkscape:export-ydpi="300"
   xmlns:inkscape="http://www.inkscape.org/namespaces/inkscape"
   xmlns:sodipodi="http://sodipodi.sourceforge.net/DTD/sodipodi-0.dtd"
   xmlns="http://www.w3.org/2000/svg"
   xmlns:svg="http://www.w3.org/2000/svg"><sodipodi:namedview
     id="namedview7"
     pagecolor="#ffffff"
     bordercolor="#999999"
     borderopacity="1"
     inkscape:showpageshadow="0"
     inkscape:pageopacity="0"
     inkscape:pagecheckerboard="0"
     inkscape:deskcolor="#d1d1d1"
     inkscape:document-units="mm"
     showgrid="false"
     inkscape:zoom="2"
     inkscape:cx="470.25"
     inkscape:cy="138.5"
     inkscape:window-width="1920"
     inkscape:window-height="1009"
     inkscape:window-x="1912"
     inkscape:window-y="-8"
     inkscape:window-maximized="1"
     inkscape:current-layer="layer1" /><defs
     id="defs2"><rect
       x="494.95898"
       y="47.263988"
       width="2.625777"
       height="112.90841"
       id="rect358" /><rect
       x="132.60175"
       y="212.68794"
       width="52.515541"
       height="68.270203"
       id="rect1000" /></defs><g
     inkscape:label="Ebene 1"
     inkscape:groupmode="layer"
     id="layer1"><circle
       style="fill:#ffffff;fill-opacity:1;stroke:none;stroke-width:0.05565;stroke-opacity:1"
       id="path234-9-9"
       cx="87"
       cy="41"
       r="15.9" /><circle
       style="fill:#ffffff;fill-opacity:1;stroke:none;stroke-width:0.0556499;stroke-opacity:1"
       id="path234-9-9-2"
       cx="122"
       cy="41"
       r="15.9" /><circle
       style="fill:#ffffff;fill-opacity:1;stroke:none;stroke-width:0.0556499;stroke-opacity:1"
       id="path234-9-9-2-0"
       cx="157"
       cy="-41"
       transform="scale(1,-1)"
       r="15.9" /><ellipse
       style="fill:#073d4e;fill-opacity:0.599045;stroke:none;stroke-width:0.0558635"
       id="path234"
       cx="121.95"
       cy="40.97205"
       rx="15.95"
       ry="15.972049" /><ellipse
       style="fill:#07384d;fill-opacity:0.902148;stroke:none;stroke-width:0.0559511"
       id="path234-1"
       cx="157"
       cy="40.97205"
       rx="16"
       ry="15.972049" /><circle
       style="fill:#153e4c;fill-opacity:0.2;stroke:none;stroke-width:0.0559999"
       id="path234-9"
       cx="87"
       cy="41"
       r="16" /><g
       aria-label="promptolution"
       id="text354"
       style="font-size:26.8193px;-inkscape-font-specification:sans-serif;fill:#082634;stroke-width:0.0700214"><path
         d="m 12.904454,21.15891 v 0 q 1.770074,0 3.137858,-0.724121 1.367785,-0.724121 2.118725,-2.172364 0.77776,-1.475061 0.77776,-3.674244 0,-2.27964 -0.858218,-3.701063 -0.831398,-1.4482422 -2.27964,-2.1187247 -1.421423,-0.6973018 -3.191497,-0.6973018 -1.287326,0 -2.30646,0.3486509 Q 9.3106682,8.741574 8.5865471,9.1438635 7.9965225,9.4925144 7.8087874,9.814346 7.6210523,10.136178 7.6210523,10.672564 v 8.850368 h 2.145544 v -8.904007 q 0.5363857,-0.295012 1.2068687,-0.536386 0.670482,-0.2413737 1.635977,-0.2413737 1.099591,0 2.038267,0.4559277 0.965495,0.455928 1.5287,1.501881 0.590025,1.019134 0.590025,2.789207 0,2.521015 -1.15323,3.674244 -1.126411,1.126411 -3.003762,1.126411 -1.15323,0 -1.984628,-0.37547 -0.8045791,-0.40229 -1.3409651,-0.911856 v 1.984628 q 0.4559281,0.402289 1.4482421,0.724121 1.019133,0.348651 2.172363,0.348651 z m -3.1378577,-2.360099 -2.145544,-0.05364 v 6.087981 q 0,0.509567 0.2950123,0.75094 0.2950123,0.241374 0.8582176,0.241374 0.3218316,0 0.5900246,-0.08046 0.268193,-0.05364 0.4022895,-0.107277 z"
         style="-inkscape-font-specification:'Baloo Bhaijaan 2, Normal'"
         id="path991" /><path
         d="m 24.409921,10.726202 v 4.23745 h -2.145544 v -4.076534 q 0,-0.616844 0.214555,-0.9654948 0.241373,-0.3754702 0.777759,-0.7241211 0.697302,-0.4559281 1.904171,-0.7777597 1.206868,-0.3486509 2.68193,-0.3486509 2.145543,0 2.145543,1.072772 0,0.268193 -0.08046,0.5095667 -0.08046,0.2145544 -0.214555,0.3754698 -0.268193,-0.053638 -0.697302,-0.1072768 -0.429108,-0.053639 -0.858217,-0.053639 -1.233688,0 -2.172363,0.2681934 -0.938676,0.241373 -1.55552,0.590024 z m -2.145544,3.003762 2.145544,0.321831 v 6.704825 q -0.134096,0.05364 -0.402289,0.107277 -0.268193,0.08046 -0.590025,0.08046 -0.563205,0 -0.858218,-0.214554 -0.295012,-0.241374 -0.295012,-0.75094 z"
         style="-inkscape-font-specification:'Baloo Bhaijaan 2, Normal'"
         id="path993" /><path
         d="m 44.014828,14.615001 v 0 q 0,1.984628 -0.75094,3.459689 -0.750941,1.475062 -2.118725,2.279641 -1.367784,0.804579 -3.218316,0.804579 -1.850532,0 -3.245135,-0.804579 -1.367785,-0.804579 -2.118725,-2.279641 -0.75094,-1.475061 -0.75094,-3.459689 0,-2.011448 0.75094,-3.45969 0.77776,-1.4750615 2.145544,-2.2796405 1.394604,-0.804579 3.218316,-0.804579 1.823712,0 3.191497,0.804579 1.367784,0.804579 2.118724,2.2796405 0.77776,1.448242 0.77776,3.45969 z M 37.926847,9.8411653 v 0 q -1.796893,0 -2.869665,1.2873267 -1.045953,1.260507 -1.045953,3.486509 0,2.252821 1.019134,3.513328 1.045952,1.260507 2.896484,1.260507 1.823712,0 2.842846,-1.260507 1.045952,-1.287326 1.045952,-3.513328 0,-2.226002 -1.045952,-3.486509 -1.019134,-1.2873267 -2.842846,-1.2873267 z"
         style="-inkscape-font-specification:'Baloo Bhaijaan 2, Normal'"
         id="path995" /><path
         d="m 57.344008,12.228083 v 3.084219 h -2.145544 v -2.923303 q 0,-1.314146 -0.77776,-1.93099 -0.75094,-0.6168437 -2.011448,-0.6168437 -0.831398,0 -1.609157,0.2681927 -0.77776,0.268193 -1.314146,0.616844 v 4.5861 h -2.145544 v -4.478823 q 0,-0.536386 0.214554,-0.9118558 0.241374,-0.3754702 0.804579,-0.7241211 0.724121,-0.4559281 1.823713,-0.7777597 1.12641,-0.3486509 2.252821,-0.3486509 1.367784,0 2.413737,0.4291088 1.045952,0.4022895 1.555519,1.1264106 0.160916,0.1609158 0.268193,0.2950123 0.107277,0.1340968 0.214555,0.3486508 0.187735,0.321832 0.321831,0.831398 0.134097,0.509567 0.134097,1.126411 z m 7.858054,0.05364 v 3.03058 h -2.145544 v -2.923303 q 0,-1.314146 -0.75094,-1.93099 -0.75094,-0.6168437 -2.011447,-0.6168437 -0.938676,0 -1.823713,0.4022897 -0.858217,0.37547 -1.555519,1.099591 L 56.056681,9.7875267 q 0.697302,-0.6973018 1.823713,-1.2068685 1.12641,-0.5095667 2.574652,-0.5095667 1.448243,0 2.494195,0.4559281 1.072772,0.4559281 1.662797,1.3946036 0.590024,0.9386758 0.590024,2.3600988 z M 47.340409,13.89088 h 2.145544 v 6.86574 q -0.134097,0.05364 -0.40229,0.107277 -0.268193,0.08046 -0.590024,0.08046 -0.563206,0 -0.858218,-0.214554 -0.295012,-0.241374 -0.295012,-0.75094 z m 7.858055,0 h 2.145544 v 6.86574 q -0.134097,0.05364 -0.429109,0.107277 -0.268193,0.08046 -0.563205,0.08046 -0.590025,0 -0.885037,-0.214554 -0.268193,-0.241374 -0.268193,-0.75094 z m 7.858054,0 h 2.145544 v 6.86574 q -0.134096,0.05364 -0.429108,0.107277 -0.268193,0.08046 -0.563206,0.08046 -0.590024,0 -0.885037,-0.214554 -0.268193,-0.241374 -0.268193,-0.75094 z"
         style="-inkscape-font-specification:'Baloo Bhaijaan 2, Normal'"
         id="path997" /><path
         d="m 74.508359,21.15891 v 0 q 1.770074,0 3.137858,-0.724121 1.367784,-0.724121 2.118725,-2.172364 0.77776,-1.475061 0.77776,-3.674244 0,-2.27964 -0.858218,-3.701063 -0.831398,-1.4482422 -2.279641,-2.1187247 -1.421422,-0.6973018 -3.191496,-0.6973018 -1.287327,0 -2.30646,0.3486509 -0.992314,0.3218316 -1.716435,0.7241211 -0.590025,0.3486509 -0.77776,0.6704825 -0.187735,0.321832 -0.187735,0.858218 v 8.850368 h 2.145544 v -8.904007 q 0.536386,-0.295012 1.206868,-0.536386 0.670483,-0.2413737 1.635978,-0.2413737 1.099591,0 2.038267,0.4559277 0.965494,0.455928 1.5287,1.501881 0.590024,1.019134 0.590024,2.789207 0,2.521015 -1.15323,3.674244 -1.12641,1.126411 -3.003761,1.126411 -1.15323,0 -1.984628,-0.37547 -0.804579,-0.40229 -1.340965,-0.911856 v 1.984628 q 0.455928,0.402289 1.448242,0.724121 1.019133,0.348651 2.172363,0.348651 z m -3.137858,-2.360099 -2.145544,-0.05364 v 6.087981 q 0,0.509567 0.295012,0.75094 0.295013,0.241374 0.858218,0.241374 0.321832,0 0.590025,-0.08046 0.268193,-0.05364 0.402289,-0.107277 z"
         style="-inkscape-font-specification:'Baloo Bhaijaan 2, Normal'"
         id="path999" /><path
         d="m 83.895102,13.729964 h 2.145544 v 3.701063 q 0,1.072772 0.616844,1.5287 0.616844,0.429109 1.689616,0.429109 0.455928,0 1.019133,-0.160916 0.563206,-0.160916 0.938676,-0.37547 0.160916,0.160916 0.295012,0.402289 0.134097,0.241374 0.134097,0.563206 0,0.590024 -0.697302,0.965495 -0.697302,0.37547 -1.93099,0.37547 -1.877351,0 -3.0574,-0.831399 -1.15323,-0.831398 -1.15323,-2.762387 z m 1.099591,-3.271955 V 8.6879354 h 5.444318 q 0.08046,0.1072772 0.160916,0.3486509 0.08046,0.2413737 0.08046,0.5095667 0,0.4291088 -0.214554,0.670482 -0.214555,0.241374 -0.590025,0.241374 z m 1.045953,4.076534 H 83.895102 V 4.8259562 q 0.134097,-0.053639 0.40229,-0.1072772 0.295012,-0.080458 0.616844,-0.080458 0.563205,0 0.831398,0.2413737 0.295012,0.2145544 0.295012,0.7241211 z"
         style="-inkscape-font-specification:'Baloo Bhaijaan 2, Normal'"
         id="path1001" /><path
         d="m 104.94826,14.615001 v 0 q 0,1.984628 -0.75094,3.459689 -0.75094,1.475062 -2.11872,2.279641 -1.36779,0.804579 -3.218318,0.804579 -1.850531,0 -3.245135,-0.804579 -1.367784,-0.804579 -2.118725,-2.279641 -0.75094,-1.475061 -0.75094,-3.459689 0,-2.011448 0.75094,-3.45969 0.77776,-1.4750615 2.145544,-2.2796405 1.394604,-0.804579 3.218316,-0.804579 1.823708,0 3.191498,0.804579 1.36778,0.804579 2.11872,2.2796405 0.77776,1.448242 0.77776,3.45969 z M 98.860282,9.8411653 v 0 q -1.796893,0 -2.869665,1.2873267 -1.045952,1.260507 -1.045952,3.486509 0,2.252821 1.019133,3.513328 1.045953,1.260507 2.896484,1.260507 1.823708,0 2.842848,-1.260507 1.04595,-1.287326 1.04595,-3.513328 0,-2.226002 -1.04595,-3.486509 -1.01914,-1.2873267 -2.842848,-1.2873267 z"
         style="-inkscape-font-specification:'Baloo Bhaijaan 2, Normal'"
         id="path1003" /><path
         d="m 108.48839,13.729964 2.14555,0.321831 v 6.704825 q -0.1341,0.05364 -0.40229,0.107277 -0.2682,0.08046 -0.59003,0.08046 -0.5632,0 -0.85821,-0.214554 -0.29502,-0.241374 -0.29502,-0.75094 z m 2.14555,1.340965 -2.14555,-0.295013 V 3.4313527 q 0.1341,-0.053639 0.40229,-0.1072772 0.29501,-0.080458 0.59003,-0.080458 0.59002,0 0.85821,0.2413737 0.29502,0.2145544 0.29502,0.7241211 z"
         style="-inkscape-font-specification:'Baloo Bhaijaan 2, Normal'"
         id="path1005" /><path
         d="m 114.8714,16.277797 v -2.440556 h 2.14554 v 2.333279 q 0,1.716435 0.91186,2.467376 0.91185,0.75094 2.52101,0.75094 1.07277,0 1.82371,-0.214554 0.75094,-0.241374 1.18005,-0.482748 v -4.854293 h 2.14555 v 4.773835 q 0,0.563206 -0.16092,0.911856 -0.1341,0.321832 -0.6973,0.643664 -0.59003,0.348651 -1.68962,0.670482 -1.09959,0.321832 -2.62829,0.321832 -1.77007,0 -3.03058,-0.509567 -1.23369,-0.536386 -1.87735,-1.609158 -0.64366,-1.099591 -0.64366,-2.762388 z m 10.72772,-1.045952 h -2.14555 V 8.473381 q 0.1341,-0.053639 0.40229,-0.1072772 0.29501,-0.080458 0.59003,-0.080458 0.59002,0 0.85821,0.2413737 0.29502,0.2145544 0.29502,0.7509404 z m -8.58218,0 H 114.8714 V 8.473381 q 0.13409,-0.053639 0.40229,-0.1072772 0.29501,-0.080458 0.61684,-0.080458 0.5632,0 0.8314,0.2413737 0.29501,0.2145544 0.29501,0.7509404 z"
         style="-inkscape-font-specification:'Baloo Bhaijaan 2, Normal'"
         id="path1007" /><path
         d="m 129.64881,13.729964 h 2.14554 v 3.701063 q 0,1.072772 0.61685,1.5287 0.61684,0.429109 1.68961,0.429109 0.45593,0 1.01914,-0.160916 0.5632,-0.160916 0.93867,-0.37547 0.16092,0.160916 0.29501,0.402289 0.1341,0.241374 0.1341,0.563206 0,0.590024 -0.6973,0.965495 -0.6973,0.37547 -1.93099,0.37547 -1.87735,0 -3.0574,-0.831399 -1.15323,-0.831398 -1.15323,-2.762387 z m 1.09959,-3.271955 V 8.6879354 h 5.44432 q 0.0805,0.1072772 0.16091,0.3486509 0.0805,0.2413737 0.0805,0.5095667 0,0.4291088 -0.21455,0.670482 -0.21456,0.241374 -0.59003,0.241374 z m 1.04595,4.076534 h -2.14554 V 4.8259562 q 0.1341,-0.053639 0.40229,-0.1072772 0.29501,-0.080458 0.61684,-0.080458 0.56321,0 0.8314,0.2413737 0.29501,0.2145544 0.29501,0.7241211 z"
         style="-inkscape-font-specification:'Baloo Bhaijaan 2, Normal'"
         id="path1009" /><path
         d="m 139.41102,4.5041246 v 0 q 0,-0.5632052 0.40229,-0.9386754 0.40229,-0.4022895 0.99232,-0.4022895 0.61684,0 0.99231,0.4022895 0.37547,0.3754702 0.37547,0.9386754 0,0.5632053 -0.37547,0.9654948 -0.37547,0.3754702 -0.99231,0.3754702 -0.59003,0 -0.99232,-0.3754702 -0.40229,-0.4022895 -0.40229,-0.9654948 z m 0.32184,9.2258394 h 2.14554 v 7.026656 q -0.1341,0.05364 -0.40229,0.107277 -0.26819,0.08046 -0.59002,0.08046 -0.56321,0 -0.85822,-0.214554 -0.29501,-0.241374 -0.29501,-0.75094 z m 2.14554,1.045952 h -2.14554 V 8.473381 q 0.13409,-0.053639 0.40229,-0.1072772 0.29501,-0.080458 0.61684,-0.080458 0.5632,0 0.8314,0.2413737 0.29501,0.2145544 0.29501,0.7509404 z"
         style="-inkscape-font-specification:'Baloo Bhaijaan 2, Normal'"
         id="path1011" /><path
         d="m 157.56768,14.615001 v 0 q 0,1.984628 -0.75094,3.459689 -0.75094,1.475062 -2.11873,2.279641 -1.36778,0.804579 -3.21831,0.804579 -1.85053,0 -3.24514,-0.804579 -1.36778,-0.804579 -2.11872,-2.279641 -0.75094,-1.475061 -0.75094,-3.459689 0,-2.011448 0.75094,-3.45969 0.77776,-1.4750615 2.14554,-2.2796405 1.39461,-0.804579 3.21832,-0.804579 1.82371,0 3.19149,0.804579 1.36779,0.804579 2.11873,2.2796405 0.77776,1.448242 0.77776,3.45969 z M 151.4797,9.8411653 v 0 q -1.7969,0 -2.86967,1.2873267 -1.04595,1.260507 -1.04595,3.486509 0,2.252821 1.01913,3.513328 1.04596,1.260507 2.89649,1.260507 1.82371,0 2.84284,-1.260507 1.04596,-1.287326 1.04596,-3.513328 0,-2.226002 -1.04596,-3.486509 -1.01913,-1.2873267 -2.84284,-1.2873267 z"
         style="-inkscape-font-specification:'Baloo Bhaijaan 2, Normal'"
         id="path1013" /><path
         d="m 171.62097,12.630372 v 2.735569 h -2.14554 V 12.73765 q 0,-1.501881 -0.85822,-2.199183 -0.8314,-0.6973017 -2.25282,-0.6973017 -1.07277,0 -1.90417,0.2681927 -0.8314,0.268193 -1.42142,0.616844 v 4.639739 h -2.14555 v -4.532462 q 0,-0.563205 0.21456,-0.9118558 0.24137,-0.3754702 0.80458,-0.7241211 0.6973,-0.4022895 1.85053,-0.7509404 1.15323,-0.3754702 2.60147,-0.3754702 2.44056,0 3.83516,1.1264106 1.42142,1.0995909 1.42142,3.4328699 z m -10.72772,1.260508 h 2.14555 v 6.86574 q -0.1341,0.05364 -0.40229,0.107277 -0.26819,0.08046 -0.59003,0.08046 -0.5632,0 -0.85821,-0.214554 -0.29502,-0.241374 -0.29502,-0.75094 z m 8.58218,0 h 2.14554 v 6.86574 q -0.13409,0.05364 -0.42911,0.107277 -0.26819,0.08046 -0.5632,0.08046 -0.59002,0 -0.88504,-0.214554 -0.26819,-0.241374 -0.26819,-0.75094 z"
         style="-inkscape-font-specification:'Baloo Bhaijaan 2, Normal'"
         id="path1015" /></g></g></svg>
